<svg width="40" height="40" viewBox="0 0 40 40" fill="none" xmlns="http://www.w3.org/2000/svg">
    <path fill-rule="evenodd" clip-rule="evenodd" d="M30.8333 39.859C31.8962 39.4398 31.868 38.1159 31.868 37.0294V32.6666H34.2857C37.4417 32.6666 40 30.2539 40 27.2775V7.38914C40 4.41272 37.4417 2 34.2857 2H5.71429C2.55829 2 0 4.4128 0 7.38914V27.2775C0 30.2539 2.55837 32.6666 5.71429 32.6666H20.256L28.3333 38.938C29.1533 39.7014 29.7702 40.278 30.8333 39.859Z" fill="#963CBD"/>
    <path fill-rule="evenodd" clip-rule="evenodd" d="M30.8333 39.859C31.8962 39.4398 31.868 38.1159 31.868 37.0294V32.6666H34.2857C37.4417 32.6666 40 30.2539 40 27.2775V7.38914C40 4.41272 37.4417 2 34.2857 2H5.71429C2.55829 2 0 4.4128 0 7.38914V27.2775C0 30.2539 2.55837 32.6666 5.71429 32.6666H20.256L28.3333 38.938C29.1533 39.7014 29.7702 40.278 30.8333 39.859Z" fill="url(#paint0_linear_7327_81315)"/>
    <path fill-rule="evenodd" clip-rule="evenodd" d="M30.8333 39.859C31.8962 39.4398 31.868 38.1159 31.868 37.0294V32.6666H34.2857C37.4417 32.6666 40 30.2539 40 27.2775V7.38914C40 4.41272 37.4417 2 34.2857 2H5.71429C2.55829 2 0 4.4128 0 7.38914V27.2775C0 30.2539 2.55837 32.6666 5.71429 32.6666H20.256L28.3333 38.938C29.1533 39.7014 29.7702 40.278 30.8333 39.859Z" fill="url(#paint1_linear_7327_81315)"/>
    <path d="M31.4855 13.5938C31.017 13.5938 30.6372 13.9736 30.6372 14.4422C30.6372 21.424 24.9779 27.0839 17.9968 27.0839C17.5283 27.0839 17.1484 27.4637 17.1484 27.9323C17.1484 28.4009 17.5283 28.7808 17.9968 28.7808C25.9149 28.7808 32.3339 22.3612 32.3339 14.4422C32.3339 13.9736 31.954 13.5938 31.4855 13.5938Z" fill="#FCFEFF"/>
    <path d="M26.3649 19.0308C27.1807 17.6998 27.9697 15.9251 27.8145 13.4405C27.493 8.29385 22.832 4.38953 18.4307 4.81265C16.7077 4.97829 14.9385 6.3829 15.0957 8.89879C15.164 9.99213 15.6991 10.6374 16.5686 11.1335C17.3963 11.6057 18.4597 11.9048 19.6651 12.2439C21.1212 12.6535 22.8102 13.1136 24.1083 14.0703C25.6642 15.217 26.7277 16.5462 26.3649 19.0308Z" fill="#FCFEFF"/>
    <path d="M9.80521 10.0312C8.98938 11.3623 8.20039 13.137 8.35562 15.6215C8.67717 20.7682 13.3382 24.6725 17.7394 24.2494C19.4624 24.0837 21.2316 22.6791 21.0744 20.1632C21.0061 19.0699 20.4711 18.4246 19.6015 17.9285C18.7738 17.4563 17.7105 17.1572 16.505 16.8181C15.0489 16.4085 13.3599 15.9485 12.0618 14.9917C10.5059 13.845 9.44238 12.5158 9.80521 10.0312Z" fill="#FCFEFF"/>
    <defs>
    <linearGradient id="paint0_linear_7327_81315" x1="83.3333" y1="-19.2197" x2="23.6598" y2="43.2216" gradientUnits="userSpaceOnUse">
    <stop stop-color="#F65275"/>
    <stop offset="1" stop-color="#F65275" stop-opacity="0"/>
    </linearGradient>
    <linearGradient id="paint1_linear_7327_81315" x1="20" y1="2" x2="20" y2="39.724" gradientUnits="userSpaceOnUse">
    <stop stop-color="#00A3E0"/>
    <stop offset="1" stop-color="#00A3E0" stop-opacity="0"/>
    </linearGradient>
    </defs>
</svg>