<svg width="20" height="22" viewBox="0 0 20 22" fill="none" xmlns="http://www.w3.org/2000/svg">
<path fill-rule="evenodd" clip-rule="evenodd" d="M10 2C5.85113 2 2 4.73396 2 9C2 10.5704 2.38842 11.7289 3.08252 12.6554C3.79003 13.5998 4.87746 14.3863 6.41627 15.0908L7.2326 15.4645L6.94868 16.3162C6.54129 17.5384 5.84997 18.6611 5.15156 19.5844C7.56467 18.8263 10.7167 17.6537 12.9453 16.1679C15.1551 14.6948 16.3969 13.5353 17.0991 12.455C17.7758 11.4139 18 10.371 18 9C18 4.73396 14.1489 2 10 2ZM0 9C0 3.26604 5.14887 0 10 0C14.8511 0 20 3.26604 20 9C20 10.629 19.7242 12.0861 18.7759 13.545C17.8531 14.9647 16.3449 16.3052 14.0547 17.8321C11.0781 19.8164 6.76589 21.2232 4.29772 21.9281C3.48665 22.1597 2.84055 21.6838 2.56243 21.1881C2.28848 20.6998 2.22087 19.9454 2.74413 19.3614C3.44439 18.5798 4.21203 17.5732 4.72616 16.4871C3.40034 15.7841 2.29326 14.9376 1.48189 13.8545C0.487851 12.5277 0 10.9296 0 9Z" fill="#0F0F0F"/>
</svg>
